<svg id="visual" viewBox="0 0 960 540" width="960" height="540" xmlns="http://www.w3.org/2000/svg" xmlns:xlink="http://www.w3.org/1999/xlink" version="1.1"><rect x="0" y="0" width="960" height="540" fill="#fff"></rect><defs><linearGradient id="grad1_0" x1="43.8%" y1="100%" x2="100%" y2="0%"><stop offset="14.444444444444446%" stop-color="#c62368" stop-opacity="1"></stop><stop offset="85.55555555555554%" stop-color="#c62368" stop-opacity="1"></stop></linearGradient></defs><defs><linearGradient id="grad1_1" x1="43.8%" y1="100%" x2="100%" y2="0%"><stop offset="14.444444444444446%" stop-color="#c62368" stop-opacity="1"></stop><stop offset="85.55555555555554%" stop-color="#d65b84" stop-opacity="1"></stop></linearGradient></defs><defs><linearGradient id="grad1_2" x1="43.8%" y1="100%" x2="100%" y2="0%"><stop offset="14.444444444444446%" stop-color="#e486a1" stop-opacity="1"></stop><stop offset="85.55555555555554%" stop-color="#d65b84" stop-opacity="1"></stop></linearGradient></defs><defs><linearGradient id="grad1_3" x1="43.8%" y1="100%" x2="100%" y2="0%"><stop offset="14.444444444444446%" stop-color="#e486a1" stop-opacity="1"></stop><stop offset="85.55555555555554%" stop-color="#f0afc0" stop-opacity="1"></stop></linearGradient></defs><defs><linearGradient id="grad1_4" x1="43.8%" y1="100%" x2="100%" y2="0%"><stop offset="14.444444444444446%" stop-color="#f9d7df" stop-opacity="1"></stop><stop offset="85.55555555555554%" stop-color="#f0afc0" stop-opacity="1"></stop></linearGradient></defs><defs><linearGradient id="grad1_5" x1="43.8%" y1="100%" x2="100%" y2="0%"><stop offset="14.444444444444446%" stop-color="#f9d7df" stop-opacity="1"></stop><stop offset="85.55555555555554%" stop-color="#ffffff" stop-opacity="1"></stop></linearGradient></defs><defs><linearGradient id="grad2_0" x1="0%" y1="100%" x2="56.3%" y2="0%"><stop offset="14.444444444444446%" stop-color="#c62368" stop-opacity="1"></stop><stop offset="85.55555555555554%" stop-color="#c62368" stop-opacity="1"></stop></linearGradient></defs><defs><linearGradient id="grad2_1" x1="0%" y1="100%" x2="56.3%" y2="0%"><stop offset="14.444444444444446%" stop-color="#d65b84" stop-opacity="1"></stop><stop offset="85.55555555555554%" stop-color="#c62368" stop-opacity="1"></stop></linearGradient></defs><defs><linearGradient id="grad2_2" x1="0%" y1="100%" x2="56.3%" y2="0%"><stop offset="14.444444444444446%" stop-color="#d65b84" stop-opacity="1"></stop><stop offset="85.55555555555554%" stop-color="#e486a1" stop-opacity="1"></stop></linearGradient></defs><defs><linearGradient id="grad2_3" x1="0%" y1="100%" x2="56.3%" y2="0%"><stop offset="14.444444444444446%" stop-color="#f0afc0" stop-opacity="1"></stop><stop offset="85.55555555555554%" stop-color="#e486a1" stop-opacity="1"></stop></linearGradient></defs><defs><linearGradient id="grad2_4" x1="0%" y1="100%" x2="56.3%" y2="0%"><stop offset="14.444444444444446%" stop-color="#f0afc0" stop-opacity="1"></stop><stop offset="85.55555555555554%" stop-color="#f9d7df" stop-opacity="1"></stop></linearGradient></defs><defs><linearGradient id="grad2_5" x1="0%" y1="100%" x2="56.3%" y2="0%"><stop offset="14.444444444444446%" stop-color="#ffffff" stop-opacity="1"></stop><stop offset="85.55555555555554%" stop-color="#f9d7df" stop-opacity="1"></stop></linearGradient></defs><g transform="translate(960, 540)"><path d="M-297 0C-284.8 -49.1 -272.6 -98.2 -249.4 -144C-226.2 -189.8 -191.9 -232.3 -148.5 -257.2C-105.1 -282.2 -52.5 -289.6 0 -297L0 0Z" fill="#fcebef"></path><path d="M-247.5 0C-237.4 -40.9 -227.2 -81.8 -207.8 -120C-188.5 -158.2 -159.9 -193.6 -123.8 -214.3C-87.6 -235.1 -43.8 -241.3 0 -247.5L0 0Z" fill="#f5c3cf"></path><path d="M-198 0C-189.9 -32.7 -181.8 -65.5 -166.3 -96C-150.8 -126.5 -127.9 -154.8 -99 -171.5C-70.1 -188.1 -35 -193.1 0 -198L0 0Z" fill="#ea9bb0"></path><path d="M-148.5 0C-142.4 -24.6 -136.3 -49.1 -124.7 -72C-113.1 -94.9 -96 -116.1 -74.3 -128.6C-52.5 -141.1 -26.3 -144.8 0 -148.5L0 0Z" fill="#de7192"></path><path d="M-99 0C-94.9 -16.4 -90.9 -32.7 -83.1 -48C-75.4 -63.3 -64 -77.4 -49.5 -85.7C-35 -94.1 -17.5 -96.5 0 -99L0 0Z" fill="#ce4376"></path><path d="M-49.5 0C-47.5 -8.2 -45.4 -16.4 -41.6 -24C-37.7 -31.6 -32 -38.7 -24.8 -42.9C-17.5 -47 -8.8 -48.3 0 -49.5L0 0Z" fill="#c62368"></path></g><g transform="translate(0, 0)"><path d="M297 0C284.4 48.8 271.7 97.7 248.5 143.5C225.4 189.3 191.7 232.1 148.5 257.2C105.3 282.3 52.7 289.6 0 297L0 0Z" fill="#fcebef"></path><path d="M247.5 0C237 40.7 226.4 81.4 207.1 119.6C187.8 157.8 159.7 193.4 123.8 214.3C87.8 235.2 43.9 241.4 0 247.5L0 0Z" fill="#f5c3cf"></path><path d="M198 0C189.6 32.6 181.1 65.1 165.7 95.7C150.3 126.2 127.8 154.8 99 171.5C70.2 188.2 35.1 193.1 0 198L0 0Z" fill="#ea9bb0"></path><path d="M148.5 0C142.2 24.4 135.9 48.8 124.3 71.7C112.7 94.7 95.8 116.1 74.3 128.6C52.7 141.1 26.3 144.8 0 148.5L0 0Z" fill="#de7192"></path><path d="M99 0C94.8 16.3 90.6 32.6 82.8 47.8C75.1 63.1 63.9 77.4 49.5 85.7C35.1 94.1 17.6 96.5 0 99L0 0Z" fill="#ce4376"></path><path d="M49.5 0C47.4 8.1 45.3 16.3 41.4 23.9C37.6 31.6 31.9 38.7 24.8 42.9C17.6 47 8.8 48.3 0 49.5L0 0Z" fill="#c62368"></path></g></svg>