<svg id="visual" viewBox="0 0 960 540" width="960" height="540" xmlns="http://www.w3.org/2000/svg" xmlns:xlink="http://www.w3.org/1999/xlink" version="1.1"><rect x="0" y="0" width="960" height="540" fill="#fff"></rect><defs><linearGradient id="grad1_0" x1="43.8%" y1="100%" x2="100%" y2="0%"><stop offset="14.444444444444446%" stop-color="#c62368" stop-opacity="1"></stop><stop offset="85.55555555555554%" stop-color="#c62368" stop-opacity="1"></stop></linearGradient></defs><defs><linearGradient id="grad1_1" x1="43.8%" y1="100%" x2="100%" y2="0%"><stop offset="14.444444444444446%" stop-color="#c62368" stop-opacity="1"></stop><stop offset="85.55555555555554%" stop-color="#da668b" stop-opacity="1"></stop></linearGradient></defs><defs><linearGradient id="grad1_2" x1="43.8%" y1="100%" x2="100%" y2="0%"><stop offset="14.444444444444446%" stop-color="#ea9bb0" stop-opacity="1"></stop><stop offset="85.55555555555554%" stop-color="#da668b" stop-opacity="1"></stop></linearGradient></defs><defs><linearGradient id="grad1_3" x1="43.8%" y1="100%" x2="100%" y2="0%"><stop offset="14.444444444444446%" stop-color="#ea9bb0" stop-opacity="1"></stop><stop offset="85.55555555555554%" stop-color="#f7cdd7" stop-opacity="1"></stop></linearGradient></defs><defs><linearGradient id="grad1_4" x1="43.8%" y1="100%" x2="100%" y2="0%"><stop offset="14.444444444444446%" stop-color="#ffffff" stop-opacity="1"></stop><stop offset="85.55555555555554%" stop-color="#f7cdd7" stop-opacity="1"></stop></linearGradient></defs><defs><linearGradient id="grad2_0" x1="0%" y1="100%" x2="56.3%" y2="0%"><stop offset="14.444444444444446%" stop-color="#c62368" stop-opacity="1"></stop><stop offset="85.55555555555554%" stop-color="#c62368" stop-opacity="1"></stop></linearGradient></defs><defs><linearGradient id="grad2_1" x1="0%" y1="100%" x2="56.3%" y2="0%"><stop offset="14.444444444444446%" stop-color="#da668b" stop-opacity="1"></stop><stop offset="85.55555555555554%" stop-color="#c62368" stop-opacity="1"></stop></linearGradient></defs><defs><linearGradient id="grad2_2" x1="0%" y1="100%" x2="56.3%" y2="0%"><stop offset="14.444444444444446%" stop-color="#da668b" stop-opacity="1"></stop><stop offset="85.55555555555554%" stop-color="#ea9bb0" stop-opacity="1"></stop></linearGradient></defs><defs><linearGradient id="grad2_3" x1="0%" y1="100%" x2="56.3%" y2="0%"><stop offset="14.444444444444446%" stop-color="#f7cdd7" stop-opacity="1"></stop><stop offset="85.55555555555554%" stop-color="#ea9bb0" stop-opacity="1"></stop></linearGradient></defs><defs><linearGradient id="grad2_4" x1="0%" y1="100%" x2="56.3%" y2="0%"><stop offset="14.444444444444446%" stop-color="#f7cdd7" stop-opacity="1"></stop><stop offset="85.55555555555554%" stop-color="#ffffff" stop-opacity="1"></stop></linearGradient></defs><g transform="translate(960, 540)"><path d="M-324 0C-310.2 -53.3 -296.3 -106.5 -271.1 -156.5C-245.8 -206.5 -209.1 -253.2 -162 -280.6C-114.9 -308 -57.5 -316 0 -324L0 0Z" fill="#fbe6eb"></path><path d="M-259.2 0C-248.1 -42.6 -237.1 -85.2 -216.9 -125.2C-196.6 -165.2 -167.3 -202.6 -129.6 -224.5C-91.9 -246.4 -46 -252.8 0 -259.2L0 0Z" fill="#f1b4c3"></path><path d="M-194.4 0C-186.1 -32 -177.8 -63.9 -162.6 -93.9C-147.5 -123.9 -125.5 -151.9 -97.2 -168.4C-68.9 -184.8 -34.5 -189.6 0 -194.4L0 0Z" fill="#e3819d"></path><path d="M-129.6 0C-124.1 -21.3 -118.5 -42.6 -108.4 -62.6C-98.3 -82.6 -83.6 -101.3 -64.8 -112.2C-46 -123.2 -23 -126.4 0 -129.6L0 0Z" fill="#d04979"></path><path d="M-64.8 0C-62 -10.7 -59.3 -21.3 -54.2 -31.3C-49.2 -41.3 -41.8 -50.6 -32.4 -56.1C-23 -61.6 -11.5 -63.2 0 -64.8L0 0Z" fill="#c62368"></path></g><g transform="translate(0, 0)"><path d="M324 0C315.6 56.9 307.3 113.8 280.6 162C253.9 210.2 208.8 249.8 159 275.4C109.2 301 54.6 312.5 0 324L0 0Z" fill="#fbe6eb"></path><path d="M259.2 0C252.5 45.5 245.8 91 224.5 129.6C203.1 168.2 167.1 199.9 127.2 220.3C87.3 240.8 43.7 250 0 259.2L0 0Z" fill="#f1b4c3"></path><path d="M194.4 0C189.4 34.1 184.4 68.3 168.4 97.2C152.3 126.1 125.3 149.9 95.4 165.2C65.5 180.6 32.8 187.5 0 194.4L0 0Z" fill="#e3819d"></path><path d="M129.6 0C126.3 22.8 122.9 45.5 112.2 64.8C101.6 84.1 83.5 99.9 63.6 110.2C43.7 120.4 21.8 125 0 129.6L0 0Z" fill="#d04979"></path><path d="M64.8 0C63.1 11.4 61.5 22.8 56.1 32.4C50.8 42 41.8 50 31.8 55.1C21.8 60.2 10.9 62.5 0 64.8L0 0Z" fill="#c62368"></path></g></svg>