<svg id="visual" viewBox="0 0 960 540" width="960" height="540" xmlns="http://www.w3.org/2000/svg" xmlns:xlink="http://www.w3.org/1999/xlink" version="1.1"><rect x="0" y="0" width="960" height="540" fill="#fff"></rect><defs><linearGradient id="grad1_0" x1="43.8%" y1="100%" x2="100%" y2="0%"><stop offset="14.444444444444446%" stop-color="#c62368" stop-opacity="1"></stop><stop offset="85.55555555555554%" stop-color="#c62368" stop-opacity="1"></stop></linearGradient></defs><defs><linearGradient id="grad1_1" x1="43.8%" y1="100%" x2="100%" y2="0%"><stop offset="14.444444444444446%" stop-color="#c62368" stop-opacity="1"></stop><stop offset="85.55555555555554%" stop-color="#d65b84" stop-opacity="1"></stop></linearGradient></defs><defs><linearGradient id="grad1_2" x1="43.8%" y1="100%" x2="100%" y2="0%"><stop offset="14.444444444444446%" stop-color="#e486a1" stop-opacity="1"></stop><stop offset="85.55555555555554%" stop-color="#d65b84" stop-opacity="1"></stop></linearGradient></defs><defs><linearGradient id="grad1_3" x1="43.8%" y1="100%" x2="100%" y2="0%"><stop offset="14.444444444444446%" stop-color="#e486a1" stop-opacity="1"></stop><stop offset="85.55555555555554%" stop-color="#f0afc0" stop-opacity="1"></stop></linearGradient></defs><defs><linearGradient id="grad1_4" x1="43.8%" y1="100%" x2="100%" y2="0%"><stop offset="14.444444444444446%" stop-color="#f9d7df" stop-opacity="1"></stop><stop offset="85.55555555555554%" stop-color="#f0afc0" stop-opacity="1"></stop></linearGradient></defs><defs><linearGradient id="grad1_5" x1="43.8%" y1="100%" x2="100%" y2="0%"><stop offset="14.444444444444446%" stop-color="#f9d7df" stop-opacity="1"></stop><stop offset="85.55555555555554%" stop-color="#ffffff" stop-opacity="1"></stop></linearGradient></defs><defs><linearGradient id="grad2_0" x1="0%" y1="100%" x2="56.3%" y2="0%"><stop offset="14.444444444444446%" stop-color="#c62368" stop-opacity="1"></stop><stop offset="85.55555555555554%" stop-color="#c62368" stop-opacity="1"></stop></linearGradient></defs><defs><linearGradient id="grad2_1" x1="0%" y1="100%" x2="56.3%" y2="0%"><stop offset="14.444444444444446%" stop-color="#d65b84" stop-opacity="1"></stop><stop offset="85.55555555555554%" stop-color="#c62368" stop-opacity="1"></stop></linearGradient></defs><defs><linearGradient id="grad2_2" x1="0%" y1="100%" x2="56.3%" y2="0%"><stop offset="14.444444444444446%" stop-color="#d65b84" stop-opacity="1"></stop><stop offset="85.55555555555554%" stop-color="#e486a1" stop-opacity="1"></stop></linearGradient></defs><defs><linearGradient id="grad2_3" x1="0%" y1="100%" x2="56.3%" y2="0%"><stop offset="14.444444444444446%" stop-color="#f0afc0" stop-opacity="1"></stop><stop offset="85.55555555555554%" stop-color="#e486a1" stop-opacity="1"></stop></linearGradient></defs><defs><linearGradient id="grad2_4" x1="0%" y1="100%" x2="56.3%" y2="0%"><stop offset="14.444444444444446%" stop-color="#f0afc0" stop-opacity="1"></stop><stop offset="85.55555555555554%" stop-color="#f9d7df" stop-opacity="1"></stop></linearGradient></defs><defs><linearGradient id="grad2_5" x1="0%" y1="100%" x2="56.3%" y2="0%"><stop offset="14.444444444444446%" stop-color="#ffffff" stop-opacity="1"></stop><stop offset="85.55555555555554%" stop-color="#f9d7df" stop-opacity="1"></stop></linearGradient></defs><g transform="translate(960, 540)"><path d="M-324 0C-315.7 -57 -307.4 -114 -280.6 -162C-253.8 -210 -208.4 -249 -158.5 -274.5C-108.6 -300 -54.3 -312 0 -324L0 0Z" fill="#fcebef"></path><path d="M-270 0C-263.1 -47.5 -256.2 -95 -233.8 -135C-211.5 -175 -173.6 -207.5 -132.1 -228.8C-90.5 -250 -45.3 -260 0 -270L0 0Z" fill="#f5c3cf"></path><path d="M-216 0C-210.5 -38 -205 -76 -187.1 -108C-169.2 -140 -138.9 -166 -105.7 -183C-72.4 -200 -36.2 -208 0 -216L0 0Z" fill="#ea9bb0"></path><path d="M-162 0C-157.9 -28.5 -153.7 -57 -140.3 -81C-126.9 -105 -104.2 -124.5 -79.3 -137.3C-54.3 -150 -27.2 -156 0 -162L0 0Z" fill="#de7192"></path><path d="M-108 0C-105.2 -19 -102.5 -38 -93.5 -54C-84.6 -70 -69.5 -83 -52.8 -91.5C-36.2 -100 -18.1 -104 0 -108L0 0Z" fill="#ce4376"></path><path d="M-54 0C-52.6 -9.5 -51.2 -19 -46.8 -27C-42.3 -35 -34.7 -41.5 -26.4 -45.8C-18.1 -50 -9.1 -52 0 -54L0 0Z" fill="#c62368"></path></g><g transform="translate(0, 0)"><path d="M324 0C314.3 55.7 304.7 111.3 278.9 161C253.1 210.7 211.2 254.4 162 280.6C112.8 306.8 56.4 315.4 0 324L0 0Z" fill="#fcebef"></path><path d="M270 0C261.9 46.4 253.9 92.8 232.4 134.2C210.9 175.6 176 212 135 233.8C94 255.6 47 262.8 0 270L0 0Z" fill="#f5c3cf"></path><path d="M216 0C209.6 37.1 203.1 74.2 185.9 107.3C168.7 140.5 140.8 169.6 108 187.1C75.2 204.5 37.6 210.3 0 216L0 0Z" fill="#ea9bb0"></path><path d="M162 0C157.2 27.8 152.3 55.7 139.4 80.5C126.5 105.3 105.6 127.2 81 140.3C56.4 153.4 28.2 157.7 0 162L0 0Z" fill="#de7192"></path><path d="M108 0C104.8 18.6 101.6 37.1 93 53.7C84.4 70.2 70.4 84.8 54 93.5C37.6 102.3 18.8 105.1 0 108L0 0Z" fill="#ce4376"></path><path d="M54 0C52.4 9.3 50.8 18.6 46.5 26.8C42.2 35.1 35.2 42.4 27 46.8C18.8 51.1 9.4 52.6 0 54L0 0Z" fill="#c62368"></path></g></svg>