<svg id="visual" viewBox="0 0 960 540" width="960" height="540" xmlns="http://www.w3.org/2000/svg" xmlns:xlink="http://www.w3.org/1999/xlink" version="1.1"><rect x="0" y="0" width="960" height="540" fill="#fff"></rect><defs><linearGradient id="grad1_0" x1="43.8%" y1="100%" x2="100%" y2="0%"><stop offset="14.444444444444446%" stop-color="#c62368" stop-opacity="1"></stop><stop offset="85.55555555555554%" stop-color="#c62368" stop-opacity="1"></stop></linearGradient></defs><defs><linearGradient id="grad1_1" x1="43.8%" y1="100%" x2="100%" y2="0%"><stop offset="14.444444444444446%" stop-color="#c62368" stop-opacity="1"></stop><stop offset="85.55555555555554%" stop-color="#d65b84" stop-opacity="1"></stop></linearGradient></defs><defs><linearGradient id="grad1_2" x1="43.8%" y1="100%" x2="100%" y2="0%"><stop offset="14.444444444444446%" stop-color="#e486a1" stop-opacity="1"></stop><stop offset="85.55555555555554%" stop-color="#d65b84" stop-opacity="1"></stop></linearGradient></defs><defs><linearGradient id="grad1_3" x1="43.8%" y1="100%" x2="100%" y2="0%"><stop offset="14.444444444444446%" stop-color="#e486a1" stop-opacity="1"></stop><stop offset="85.55555555555554%" stop-color="#f0afc0" stop-opacity="1"></stop></linearGradient></defs><defs><linearGradient id="grad1_4" x1="43.8%" y1="100%" x2="100%" y2="0%"><stop offset="14.444444444444446%" stop-color="#f9d7df" stop-opacity="1"></stop><stop offset="85.55555555555554%" stop-color="#f0afc0" stop-opacity="1"></stop></linearGradient></defs><defs><linearGradient id="grad1_5" x1="43.8%" y1="100%" x2="100%" y2="0%"><stop offset="14.444444444444446%" stop-color="#f9d7df" stop-opacity="1"></stop><stop offset="85.55555555555554%" stop-color="#ffffff" stop-opacity="1"></stop></linearGradient></defs><defs><linearGradient id="grad2_0" x1="0%" y1="100%" x2="56.3%" y2="0%"><stop offset="14.444444444444446%" stop-color="#c62368" stop-opacity="1"></stop><stop offset="85.55555555555554%" stop-color="#c62368" stop-opacity="1"></stop></linearGradient></defs><defs><linearGradient id="grad2_1" x1="0%" y1="100%" x2="56.3%" y2="0%"><stop offset="14.444444444444446%" stop-color="#d65b84" stop-opacity="1"></stop><stop offset="85.55555555555554%" stop-color="#c62368" stop-opacity="1"></stop></linearGradient></defs><defs><linearGradient id="grad2_2" x1="0%" y1="100%" x2="56.3%" y2="0%"><stop offset="14.444444444444446%" stop-color="#d65b84" stop-opacity="1"></stop><stop offset="85.55555555555554%" stop-color="#e486a1" stop-opacity="1"></stop></linearGradient></defs><defs><linearGradient id="grad2_3" x1="0%" y1="100%" x2="56.3%" y2="0%"><stop offset="14.444444444444446%" stop-color="#f0afc0" stop-opacity="1"></stop><stop offset="85.55555555555554%" stop-color="#e486a1" stop-opacity="1"></stop></linearGradient></defs><defs><linearGradient id="grad2_4" x1="0%" y1="100%" x2="56.3%" y2="0%"><stop offset="14.444444444444446%" stop-color="#f0afc0" stop-opacity="1"></stop><stop offset="85.55555555555554%" stop-color="#f9d7df" stop-opacity="1"></stop></linearGradient></defs><defs><linearGradient id="grad2_5" x1="0%" y1="100%" x2="56.3%" y2="0%"><stop offset="14.444444444444446%" stop-color="#ffffff" stop-opacity="1"></stop><stop offset="85.55555555555554%" stop-color="#f9d7df" stop-opacity="1"></stop></linearGradient></defs><g transform="translate(960, 540)"><path d="M-243 0C-237.1 -43.3 -231.2 -86.6 -210.4 -121.5C-189.7 -156.4 -154.1 -182.9 -116.5 -201.8C-78.9 -220.6 -39.5 -231.8 0 -243L0 0Z" fill="#fcebef"></path><path d="M-202.5 0C-197.6 -36.1 -192.7 -72.2 -175.4 -101.3C-158.1 -130.3 -128.4 -152.4 -97.1 -168.2C-65.8 -183.9 -32.9 -193.2 0 -202.5L0 0Z" fill="#f5c3cf"></path><path d="M-162 0C-158.1 -28.9 -154.1 -57.7 -140.3 -81C-126.5 -104.3 -102.7 -122 -77.7 -134.5C-52.6 -147.1 -26.3 -154.5 0 -162L0 0Z" fill="#ea9bb0"></path><path d="M-121.5 0C-118.6 -21.6 -115.6 -43.3 -105.2 -60.8C-94.8 -78.2 -77 -91.5 -58.3 -100.9C-39.5 -110.3 -19.7 -115.9 0 -121.5L0 0Z" fill="#de7192"></path><path d="M-81 0C-79 -14.4 -77.1 -28.9 -70.1 -40.5C-63.2 -52.1 -51.4 -61 -38.8 -67.3C-26.3 -73.5 -13.2 -77.3 0 -81L0 0Z" fill="#ce4376"></path><path d="M-40.5 0C-39.5 -7.2 -38.5 -14.4 -35.1 -20.3C-31.6 -26.1 -25.7 -30.5 -19.4 -33.6C-13.2 -36.8 -6.6 -38.6 0 -40.5L0 0Z" fill="#c62368"></path></g><g transform="translate(0, 0)"><path d="M243 0C236.7 42.6 230.4 85.2 210.4 121.5C190.5 157.8 156.9 187.8 119.5 207C82.1 226.2 41.1 234.6 0 243L0 0Z" fill="#fcebef"></path><path d="M202.5 0C197.3 35.5 192 71 175.4 101.2C158.7 131.5 130.7 156.5 99.6 172.5C68.5 188.5 34.2 195.5 0 202.5L0 0Z" fill="#f5c3cf"></path><path d="M162 0C157.8 28.4 153.6 56.8 140.3 81C127 105.2 104.6 125.2 79.7 138C54.8 150.8 27.4 156.4 0 162L0 0Z" fill="#ea9bb0"></path><path d="M121.5 0C118.4 21.3 115.2 42.6 105.2 60.7C95.2 78.9 78.4 93.9 59.8 103.5C41.1 113.1 20.5 117.3 0 121.5L0 0Z" fill="#de7192"></path><path d="M81 0C78.9 14.2 76.8 28.4 70.1 40.5C63.5 52.6 52.3 62.6 39.8 69C27.4 75.4 13.7 78.2 0 81L0 0Z" fill="#ce4376"></path><path d="M40.5 0C39.5 7.1 38.4 14.2 35.1 20.2C31.7 26.3 26.1 31.3 19.9 34.5C13.7 37.7 6.8 39.1 0 40.5L0 0Z" fill="#c62368"></path></g></svg>