<svg id="visual" viewBox="0 0 900 600" width="900" height="600" xmlns="http://www.w3.org/2000/svg" xmlns:xlink="http://www.w3.org/1999/xlink" version="1.1"><rect x="0" y="0" width="900" height="600" fill="#FFF"></rect><path d="M642 600L654.8 593.8C667.7 587.7 693.3 575.3 680 562.8C666.7 550.3 614.3 537.7 577.3 525.2C540.3 512.7 518.7 500.3 528.8 487.8C539 475.3 581 462.7 604.8 450.2C628.7 437.7 634.3 425.3 618.7 412.8C603 400.3 566 387.7 569.7 375.2C573.3 362.7 617.7 350.3 630 337.8C642.3 325.3 622.7 312.7 608.5 300.2C594.3 287.7 585.7 275.3 560.3 262.8C535 250.3 493 237.7 481.7 225.2C470.3 212.7 489.7 200.3 504.8 187.8C520 175.3 531 162.7 525.7 150.2C520.3 137.7 498.7 125.3 505.5 112.8C512.3 100.3 547.7 87.7 542 75.2C536.3 62.7 489.7 50.3 474.2 37.8C458.7 25.3 474.3 12.7 482.2 6.3L490 0L900 0L900 6.3C900 12.7 900 25.3 900 37.8C900 50.3 900 62.7 900 75.2C900 87.7 900 100.3 900 112.8C900 125.3 900 137.7 900 150.2C900 162.7 900 175.3 900 187.8C900 200.3 900 212.7 900 225.2C900 237.7 900 250.3 900 262.8C900 275.3 900 287.7 900 300.2C900 312.7 900 325.3 900 337.8C900 350.3 900 362.7 900 375.2C900 387.7 900 400.3 900 412.8C900 425.3 900 437.7 900 450.2C900 462.7 900 475.3 900 487.8C900 500.3 900 512.7 900 525.2C900 537.7 900 550.3 900 562.8C900 575.3 900 587.7 900 593.8L900 600Z" fill="#4FACF7" stroke-linecap="round" stroke-linejoin="miter"></path></svg>