<svg id="visual" viewBox="0 0 900 600" width="900" height="600" xmlns="http://www.w3.org/2000/svg" xmlns:xlink="http://www.w3.org/1999/xlink" version="1.1"><rect x="0" y="0" width="900" height="600" fill="#eee"></rect><path d="M454 600L475.3 588.8C496.7 577.7 539.3 555.3 560 533.2C580.7 511 579.3 489 566.3 466.8C553.3 444.7 528.7 422.3 536.7 400C544.7 377.7 585.3 355.3 620.5 333.2C655.7 311 685.3 289 684.8 266.8C684.3 244.7 653.7 222.3 610.8 200C568 177.7 513 155.3 513.7 133.2C514.3 111 570.7 89 587 66.8C603.3 44.7 579.7 22.3 567.8 11.2L556 0L900 0L900 11.2C900 22.3 900 44.7 900 66.8C900 89 900 111 900 133.2C900 155.3 900 177.7 900 200C900 222.3 900 244.7 900 266.8C900 289 900 311 900 333.2C900 355.3 900 377.7 900 400C900 422.3 900 444.7 900 466.8C900 489 900 511 900 533.2C900 555.3 900 577.7 900 588.8L900 600Z" fill="#4FACF7" stroke-linecap="round" stroke-linejoin="miter"></path></svg>