<svg id="visual" viewBox="0 0 900 600" width="900" height="600" xmlns="http://www.w3.org/2000/svg" xmlns:xlink="http://www.w3.org/1999/xlink" version="1.1"><rect x="0" y="0" width="900" height="600" fill="#eee"></rect><path d="M597 600L589.3 592.3C581.7 584.7 566.3 569.3 559.7 554C553 538.7 555 523.3 578.8 508C602.7 492.7 648.3 477.3 633.7 461.8C619 446.3 544 430.7 536.5 415.2C529 399.7 589 384.3 624.5 369C660 353.7 671 338.3 676.8 323C682.7 307.7 683.3 292.3 672.2 277C661 261.7 638 246.3 607.2 231C576.3 215.7 537.7 200.3 525.3 184.8C513 169.3 527 153.7 556.5 138.2C586 122.7 631 107.3 652.3 92C673.7 76.7 671.3 61.3 645.8 46C620.3 30.7 571.7 15.3 547.3 7.7L523 0L900 0L900 7.7C900 15.3 900 30.7 900 46C900 61.3 900 76.7 900 92C900 107.3 900 122.7 900 138.2C900 153.7 900 169.3 900 184.8C900 200.3 900 215.7 900 231C900 246.3 900 261.7 900 277C900 292.3 900 307.7 900 323C900 338.3 900 353.7 900 369C900 384.3 900 399.7 900 415.2C900 430.7 900 446.3 900 461.8C900 477.3 900 492.7 900 508C900 523.3 900 538.7 900 554C900 569.3 900 584.7 900 592.3L900 600Z" fill="#4FACF7" stroke-linecap="round" stroke-linejoin="miter"></path></svg>